<?xml version="1.0" encoding="UTF-8" standalone="no"?>
<!DOCTYPE svg PUBLIC "-//W3C//DTD SVG 1.1//EN" "http://www.w3.org/Graphics/SVG/1.1/DTD/svg11.dtd">
<svg width="100%" height="100%" viewBox="0 0 1062 1225" version="1.1" xmlns="http://www.w3.org/2000/svg" xmlns:xlink="http://www.w3.org/1999/xlink" xml:space="preserve" style="fill-rule:evenodd;clip-rule:evenodd;stroke-linecap:round;stroke-linejoin:round;stroke-miterlimit:1.5;">
    <g id="_195-Diffusors">
        <rect x="0.16" y="0.181" width="1061.29" height="1224.57" style="fill:none;stroke:black;stroke-width:0.3px;"/>
        <path d="M81.812,0.181L81.812,1224.75" style="fill:none;stroke:black;stroke-width:0.3px;"/>
        <path d="M163.463,0.181L163.463,1224.75" style="fill:none;stroke:black;stroke-width:0.3px;"/>
        <path d="M245.115,0.181L245.115,1224.75" style="fill:none;stroke:black;stroke-width:0.3px;"/>
        <path d="M326.766,0.181L326.766,1224.75" style="fill:none;stroke:black;stroke-width:0.3px;"/>
        <path d="M408.418,0.181L408.418,1224.75" style="fill:none;stroke:black;stroke-width:0.3px;"/>
        <path d="M490.069,0.181L490.069,1224.75" style="fill:none;stroke:black;stroke-width:0.3px;"/>
        <path d="M571.721,0.181L571.721,1224.75" style="fill:none;stroke:black;stroke-width:0.3px;"/>
        <path d="M653.372,0.181L653.372,1224.75" style="fill:none;stroke:black;stroke-width:0.3px;"/>
        <path d="M735.024,0.181L735.024,1224.75" style="fill:none;stroke:black;stroke-width:0.3px;"/>
        <path d="M816.675,0.181L816.675,1224.75" style="fill:none;stroke:black;stroke-width:0.3px;"/>
        <path d="M898.327,0.181L898.327,1224.75" style="fill:none;stroke:black;stroke-width:0.3px;"/>
        <path d="M979.978,0.181L979.978,1224.75" style="fill:none;stroke:black;stroke-width:0.3px;"/>
        <path d="M0.16,81.806L1061.45,81.806" style="fill:none;stroke:black;stroke-width:0.3px;"/>
        <path d="M0.16,163.431L1061.45,163.431" style="fill:none;stroke:black;stroke-width:0.3px;"/>
        <path d="M0.16,245.056L1061.45,245.056" style="fill:none;stroke:black;stroke-width:0.3px;"/>
        <path d="M0.16,326.68L1061.45,326.68" style="fill:none;stroke:black;stroke-width:0.3px;"/>
        <path d="M0.16,408.305L1061.45,408.305" style="fill:none;stroke:black;stroke-width:0.3px;"/>
        <path d="M0.16,489.93L1061.45,489.93" style="fill:none;stroke:black;stroke-width:0.3px;"/>
        <path d="M0.16,571.555L1061.45,571.555" style="fill:none;stroke:black;stroke-width:0.3px;"/>
        <path d="M0.16,653.18L1061.45,653.18" style="fill:none;stroke:black;stroke-width:0.3px;"/>
        <path d="M0.16,734.804L1061.45,734.804" style="fill:none;stroke:black;stroke-width:0.3px;"/>
        <path d="M0.16,816.429L1061.45,816.429" style="fill:none;stroke:black;stroke-width:0.3px;"/>
        <path d="M0.16,898.054L1061.45,898.054" style="fill:none;stroke:black;stroke-width:0.3px;"/>
        <path d="M0.16,979.679L1061.45,979.679" style="fill:none;stroke:black;stroke-width:0.3px;"/>
        <path d="M0.16,1061.3L1061.45,1061.3" style="fill:none;stroke:black;stroke-width:0.3px;"/>
        <path d="M0.16,1142.93L1061.45,1142.93" style="fill:none;stroke:black;stroke-width:0.3px;"/>
        <rect x="979.978" y="1142.93" width="81.474" height="81.82" style="fill:none;stroke:black;stroke-width:0.3px;"/>
    </g>
</svg>
