<?xml version="1.0" encoding="UTF-8" standalone="no"?>
<!DOCTYPE svg PUBLIC "-//W3C//DTD SVG 1.1//EN" "http://www.w3.org/Graphics/SVG/1.1/DTD/svg11.dtd">
<svg width="100%" height="100%" viewBox="0 0 1071 2230" version="1.1" xmlns="http://www.w3.org/2000/svg" xmlns:xlink="http://www.w3.org/1999/xlink" xml:space="preserve" style="fill-rule:evenodd;clip-rule:evenodd;stroke-linecap:round;stroke-linejoin:round;stroke-miterlimit:1.5;">
    <g id="Diffusor-carrier-upper-5mm">
        <g>
            <rect x="69.798" y="177.404" width="75.118" height="75.118" style="fill:none;stroke:black;stroke-width:0.24px;"/>
        </g>
        <g>
            <rect x="69.798" y="271.921" width="75.118" height="75.118" style="fill:none;stroke:black;stroke-width:0.24px;"/>
        </g>
        <g>
            <rect x="69.798" y="366.438" width="75.118" height="75.118" style="fill:none;stroke:black;stroke-width:0.24px;"/>
        </g>
        <g>
            <rect x="69.798" y="460.955" width="75.118" height="75.118" style="fill:none;stroke:black;stroke-width:0.24px;"/>
        </g>
        <g>
            <rect x="69.798" y="555.472" width="75.118" height="75.118" style="fill:none;stroke:black;stroke-width:0.24px;"/>
        </g>
        <g>
            <rect x="69.798" y="649.989" width="75.118" height="75.118" style="fill:none;stroke:black;stroke-width:0.24px;"/>
        </g>
        <g>
            <rect x="69.798" y="744.506" width="75.118" height="75.118" style="fill:none;stroke:black;stroke-width:0.24px;"/>
        </g>
        <g>
            <rect x="69.798" y="839.023" width="75.118" height="75.118" style="fill:none;stroke:black;stroke-width:0.24px;"/>
        </g>
        <g>
            <rect x="69.798" y="933.54" width="75.118" height="75.118" style="fill:none;stroke:black;stroke-width:0.24px;"/>
        </g>
        <g>
            <rect x="69.798" y="1028.06" width="75.118" height="75.118" style="fill:none;stroke:black;stroke-width:0.24px;"/>
        </g>
        <g>
            <rect x="69.798" y="1122.58" width="75.118" height="75.118" style="fill:none;stroke:black;stroke-width:0.24px;"/>
        </g>
        <g>
            <rect x="69.798" y="1217.09" width="75.118" height="75.118" style="fill:none;stroke:black;stroke-width:0.24px;"/>
        </g>
        <g>
            <rect x="69.798" y="1311.61" width="75.118" height="75.118" style="fill:none;stroke:black;stroke-width:0.24px;"/>
        </g>
        <g>
            <rect x="69.798" y="1406.13" width="75.118" height="75.118" style="fill:none;stroke:black;stroke-width:0.24px;"/>
        </g>
        <g>
            <rect x="69.798" y="1500.64" width="75.118" height="75.118" style="fill:none;stroke:black;stroke-width:0.24px;"/>
        </g>
        <g>
            <rect x="69.798" y="1595.16" width="75.118" height="75.118" style="fill:none;stroke:black;stroke-width:0.24px;"/>
        </g>
        <g>
            <rect x="69.798" y="1689.68" width="75.118" height="75.118" style="fill:none;stroke:black;stroke-width:0.24px;"/>
        </g>
        <g>
            <rect x="69.798" y="1784.19" width="75.118" height="75.118" style="fill:none;stroke:black;stroke-width:0.24px;"/>
        </g>
        <g>
            <rect x="69.798" y="1878.71" width="75.118" height="75.118" style="fill:none;stroke:black;stroke-width:0.24px;"/>
        </g>
        <g>
            <rect x="69.798" y="1973.23" width="75.118" height="75.118" style="fill:none;stroke:black;stroke-width:0.24px;"/>
        </g>
        <g>
            <rect x="164.192" y="177.404" width="75.118" height="75.118" style="fill:none;stroke:black;stroke-width:0.24px;"/>
        </g>
        <g>
            <rect x="164.192" y="271.921" width="75.118" height="75.118" style="fill:none;stroke:black;stroke-width:0.24px;"/>
        </g>
        <g>
            <rect x="164.192" y="366.438" width="75.118" height="75.118" style="fill:none;stroke:black;stroke-width:0.24px;"/>
        </g>
        <g>
            <rect x="164.192" y="460.955" width="75.118" height="75.118" style="fill:none;stroke:black;stroke-width:0.24px;"/>
        </g>
        <g>
            <rect x="164.192" y="555.472" width="75.118" height="75.118" style="fill:none;stroke:black;stroke-width:0.24px;"/>
        </g>
        <g>
            <rect x="164.192" y="649.989" width="75.118" height="75.118" style="fill:none;stroke:black;stroke-width:0.24px;"/>
        </g>
        <g>
            <rect x="164.192" y="744.506" width="75.118" height="75.118" style="fill:none;stroke:black;stroke-width:0.24px;"/>
        </g>
        <g>
            <rect x="164.192" y="839.023" width="75.118" height="75.118" style="fill:none;stroke:black;stroke-width:0.24px;"/>
        </g>
        <g>
            <rect x="164.192" y="933.54" width="75.118" height="75.118" style="fill:none;stroke:black;stroke-width:0.24px;"/>
        </g>
        <g>
            <rect x="164.192" y="1028.06" width="75.118" height="75.118" style="fill:none;stroke:black;stroke-width:0.24px;"/>
        </g>
        <g>
            <rect x="164.192" y="1122.58" width="75.118" height="75.118" style="fill:none;stroke:black;stroke-width:0.24px;"/>
        </g>
        <g>
            <rect x="164.192" y="1217.09" width="75.118" height="75.118" style="fill:none;stroke:black;stroke-width:0.24px;"/>
        </g>
        <g>
            <rect x="164.192" y="1311.61" width="75.118" height="75.118" style="fill:none;stroke:black;stroke-width:0.24px;"/>
        </g>
        <g>
            <rect x="164.192" y="1406.13" width="75.118" height="75.118" style="fill:none;stroke:black;stroke-width:0.24px;"/>
        </g>
        <g>
            <rect x="164.192" y="1500.64" width="75.118" height="75.118" style="fill:none;stroke:black;stroke-width:0.24px;"/>
        </g>
        <g>
            <rect x="164.192" y="1595.16" width="75.118" height="75.118" style="fill:none;stroke:black;stroke-width:0.24px;"/>
        </g>
        <g>
            <rect x="164.192" y="1689.68" width="75.118" height="75.118" style="fill:none;stroke:black;stroke-width:0.24px;"/>
        </g>
        <g>
            <rect x="164.192" y="1784.19" width="75.118" height="75.118" style="fill:none;stroke:black;stroke-width:0.24px;"/>
        </g>
        <g>
            <rect x="164.192" y="1878.71" width="75.118" height="75.118" style="fill:none;stroke:black;stroke-width:0.24px;"/>
        </g>
        <g>
            <rect x="164.192" y="1973.23" width="75.118" height="75.118" style="fill:none;stroke:black;stroke-width:0.24px;"/>
        </g>
        <g>
            <rect x="258.586" y="177.404" width="75.118" height="75.118" style="fill:none;stroke:black;stroke-width:0.24px;"/>
        </g>
        <g>
            <rect x="258.586" y="271.921" width="75.118" height="75.118" style="fill:none;stroke:black;stroke-width:0.24px;"/>
        </g>
        <g>
            <rect x="258.586" y="366.438" width="75.118" height="75.118" style="fill:none;stroke:black;stroke-width:0.24px;"/>
        </g>
        <g>
            <rect x="258.586" y="460.955" width="75.118" height="75.118" style="fill:none;stroke:black;stroke-width:0.24px;"/>
        </g>
        <g>
            <rect x="258.586" y="555.472" width="75.118" height="75.118" style="fill:none;stroke:black;stroke-width:0.24px;"/>
        </g>
        <g>
            <rect x="258.586" y="649.989" width="75.118" height="75.118" style="fill:none;stroke:black;stroke-width:0.24px;"/>
        </g>
        <g>
            <rect x="258.586" y="744.506" width="75.118" height="75.118" style="fill:none;stroke:black;stroke-width:0.24px;"/>
        </g>
        <g>
            <rect x="258.586" y="839.023" width="75.118" height="75.118" style="fill:none;stroke:black;stroke-width:0.24px;"/>
        </g>
        <g>
            <rect x="258.586" y="933.54" width="75.118" height="75.118" style="fill:none;stroke:black;stroke-width:0.24px;"/>
        </g>
        <g>
            <rect x="258.586" y="1028.06" width="75.118" height="75.118" style="fill:none;stroke:black;stroke-width:0.24px;"/>
        </g>
        <g>
            <rect x="258.586" y="1122.58" width="75.118" height="75.118" style="fill:none;stroke:black;stroke-width:0.24px;"/>
        </g>
        <g>
            <rect x="258.586" y="1217.09" width="75.118" height="75.118" style="fill:none;stroke:black;stroke-width:0.24px;"/>
        </g>
        <g>
            <rect x="258.586" y="1311.61" width="75.118" height="75.118" style="fill:none;stroke:black;stroke-width:0.24px;"/>
        </g>
        <g>
            <rect x="258.586" y="1406.13" width="75.118" height="75.118" style="fill:none;stroke:black;stroke-width:0.24px;"/>
        </g>
        <g>
            <rect x="258.586" y="1500.64" width="75.118" height="75.118" style="fill:none;stroke:black;stroke-width:0.24px;"/>
        </g>
        <g>
            <rect x="258.586" y="1595.16" width="75.118" height="75.118" style="fill:none;stroke:black;stroke-width:0.24px;"/>
        </g>
        <g>
            <rect x="258.586" y="1689.68" width="75.118" height="75.118" style="fill:none;stroke:black;stroke-width:0.24px;"/>
        </g>
        <g>
            <rect x="258.586" y="1784.19" width="75.118" height="75.118" style="fill:none;stroke:black;stroke-width:0.24px;"/>
        </g>
        <g>
            <rect x="258.586" y="1878.71" width="75.118" height="75.118" style="fill:none;stroke:black;stroke-width:0.24px;"/>
        </g>
        <g>
            <rect x="258.586" y="1973.23" width="75.118" height="75.118" style="fill:none;stroke:black;stroke-width:0.24px;"/>
        </g>
        <g>
            <rect x="352.98" y="177.404" width="75.118" height="75.118" style="fill:none;stroke:black;stroke-width:0.24px;"/>
        </g>
        <g>
            <rect x="352.98" y="271.921" width="75.118" height="75.118" style="fill:none;stroke:black;stroke-width:0.24px;"/>
        </g>
        <g>
            <rect x="352.98" y="366.438" width="75.118" height="75.118" style="fill:none;stroke:black;stroke-width:0.24px;"/>
        </g>
        <g>
            <rect x="352.98" y="460.955" width="75.118" height="75.118" style="fill:none;stroke:black;stroke-width:0.24px;"/>
        </g>
        <g>
            <rect x="352.98" y="555.472" width="75.118" height="75.118" style="fill:none;stroke:black;stroke-width:0.24px;"/>
        </g>
        <g>
            <rect x="352.98" y="649.989" width="75.118" height="75.118" style="fill:none;stroke:black;stroke-width:0.24px;"/>
        </g>
        <g>
            <rect x="352.98" y="744.506" width="75.118" height="75.118" style="fill:none;stroke:black;stroke-width:0.24px;"/>
        </g>
        <g>
            <rect x="352.98" y="839.023" width="75.118" height="75.118" style="fill:none;stroke:black;stroke-width:0.24px;"/>
        </g>
        <g>
            <rect x="352.98" y="933.54" width="75.118" height="75.118" style="fill:none;stroke:black;stroke-width:0.24px;"/>
        </g>
        <g>
            <rect x="352.98" y="1028.06" width="75.118" height="75.118" style="fill:none;stroke:black;stroke-width:0.24px;"/>
        </g>
        <g>
            <rect x="352.98" y="1122.58" width="75.118" height="75.118" style="fill:none;stroke:black;stroke-width:0.24px;"/>
        </g>
        <g>
            <rect x="352.98" y="1217.09" width="75.118" height="75.118" style="fill:none;stroke:black;stroke-width:0.24px;"/>
        </g>
        <g>
            <rect x="352.98" y="1311.61" width="75.118" height="75.118" style="fill:none;stroke:black;stroke-width:0.24px;"/>
        </g>
        <g>
            <rect x="352.98" y="1406.13" width="75.118" height="75.118" style="fill:none;stroke:black;stroke-width:0.24px;"/>
        </g>
        <g>
            <rect x="352.98" y="1500.64" width="75.118" height="75.118" style="fill:none;stroke:black;stroke-width:0.24px;"/>
        </g>
        <g>
            <rect x="352.98" y="1595.16" width="75.118" height="75.118" style="fill:none;stroke:black;stroke-width:0.24px;"/>
        </g>
        <g>
            <rect x="352.98" y="1689.68" width="75.118" height="75.118" style="fill:none;stroke:black;stroke-width:0.24px;"/>
        </g>
        <g>
            <rect x="352.98" y="1784.19" width="75.118" height="75.118" style="fill:none;stroke:black;stroke-width:0.24px;"/>
        </g>
        <g>
            <rect x="352.98" y="1878.71" width="75.118" height="75.118" style="fill:none;stroke:black;stroke-width:0.24px;"/>
        </g>
        <g>
            <rect x="352.98" y="1973.23" width="75.118" height="75.118" style="fill:none;stroke:black;stroke-width:0.24px;"/>
        </g>
        <g>
            <rect x="447.373" y="177.404" width="75.118" height="75.118" style="fill:none;stroke:black;stroke-width:0.24px;"/>
        </g>
        <g>
            <rect x="447.373" y="271.921" width="75.118" height="75.118" style="fill:none;stroke:black;stroke-width:0.24px;"/>
        </g>
        <g>
            <rect x="447.373" y="366.438" width="75.118" height="75.118" style="fill:none;stroke:black;stroke-width:0.24px;"/>
        </g>
        <g>
            <rect x="447.373" y="460.955" width="75.118" height="75.118" style="fill:none;stroke:black;stroke-width:0.24px;"/>
        </g>
        <g>
            <rect x="447.373" y="555.472" width="75.118" height="75.118" style="fill:none;stroke:black;stroke-width:0.24px;"/>
        </g>
        <g>
            <rect x="447.373" y="649.989" width="75.118" height="75.118" style="fill:none;stroke:black;stroke-width:0.24px;"/>
        </g>
        <g>
            <rect x="447.373" y="744.506" width="75.118" height="75.118" style="fill:none;stroke:black;stroke-width:0.24px;"/>
        </g>
        <g>
            <rect x="447.373" y="839.023" width="75.118" height="75.118" style="fill:none;stroke:black;stroke-width:0.24px;"/>
        </g>
        <g>
            <rect x="447.373" y="933.54" width="75.118" height="75.118" style="fill:none;stroke:black;stroke-width:0.24px;"/>
        </g>
        <g>
            <rect x="447.373" y="1028.06" width="75.118" height="75.118" style="fill:none;stroke:black;stroke-width:0.24px;"/>
        </g>
        <g>
            <rect x="447.373" y="1122.58" width="75.118" height="75.118" style="fill:none;stroke:black;stroke-width:0.24px;"/>
        </g>
        <g>
            <rect x="447.373" y="1217.09" width="75.118" height="75.118" style="fill:none;stroke:black;stroke-width:0.24px;"/>
        </g>
        <g>
            <rect x="447.373" y="1311.61" width="75.118" height="75.118" style="fill:none;stroke:black;stroke-width:0.24px;"/>
        </g>
        <g>
            <rect x="447.373" y="1406.13" width="75.118" height="75.118" style="fill:none;stroke:black;stroke-width:0.24px;"/>
        </g>
        <g>
            <rect x="447.373" y="1500.64" width="75.118" height="75.118" style="fill:none;stroke:black;stroke-width:0.24px;"/>
        </g>
        <g>
            <rect x="447.373" y="1595.16" width="75.118" height="75.118" style="fill:none;stroke:black;stroke-width:0.24px;"/>
        </g>
        <g>
            <rect x="447.373" y="1689.68" width="75.118" height="75.118" style="fill:none;stroke:black;stroke-width:0.24px;"/>
        </g>
        <g>
            <rect x="447.373" y="1784.19" width="75.118" height="75.118" style="fill:none;stroke:black;stroke-width:0.24px;"/>
        </g>
        <g>
            <rect x="447.373" y="1878.71" width="75.118" height="75.118" style="fill:none;stroke:black;stroke-width:0.24px;"/>
        </g>
        <g>
            <rect x="447.373" y="1973.23" width="75.118" height="75.118" style="fill:none;stroke:black;stroke-width:0.24px;"/>
        </g>
        <g>
            <rect x="541.767" y="177.404" width="75.118" height="75.118" style="fill:none;stroke:black;stroke-width:0.24px;"/>
        </g>
        <g>
            <rect x="541.767" y="271.921" width="75.118" height="75.118" style="fill:none;stroke:black;stroke-width:0.24px;"/>
        </g>
        <g>
            <rect x="541.767" y="366.438" width="75.118" height="75.118" style="fill:none;stroke:black;stroke-width:0.24px;"/>
        </g>
        <g>
            <rect x="541.767" y="460.955" width="75.118" height="75.118" style="fill:none;stroke:black;stroke-width:0.24px;"/>
        </g>
        <g>
            <rect x="541.767" y="555.472" width="75.118" height="75.118" style="fill:none;stroke:black;stroke-width:0.24px;"/>
        </g>
        <g>
            <rect x="541.767" y="649.989" width="75.118" height="75.118" style="fill:none;stroke:black;stroke-width:0.24px;"/>
        </g>
        <g>
            <rect x="541.767" y="744.506" width="75.118" height="75.118" style="fill:none;stroke:black;stroke-width:0.24px;"/>
        </g>
        <g>
            <rect x="541.767" y="839.023" width="75.118" height="75.118" style="fill:none;stroke:black;stroke-width:0.24px;"/>
        </g>
        <g>
            <rect x="541.767" y="933.54" width="75.118" height="75.118" style="fill:none;stroke:black;stroke-width:0.24px;"/>
        </g>
        <g>
            <rect x="541.767" y="1028.06" width="75.118" height="75.118" style="fill:none;stroke:black;stroke-width:0.24px;"/>
        </g>
        <g>
            <rect x="541.767" y="1122.58" width="75.118" height="75.118" style="fill:none;stroke:black;stroke-width:0.24px;"/>
        </g>
        <g>
            <rect x="541.767" y="1217.09" width="75.118" height="75.118" style="fill:none;stroke:black;stroke-width:0.24px;"/>
        </g>
        <g>
            <rect x="541.767" y="1311.61" width="75.118" height="75.118" style="fill:none;stroke:black;stroke-width:0.24px;"/>
        </g>
        <g>
            <rect x="541.767" y="1406.13" width="75.118" height="75.118" style="fill:none;stroke:black;stroke-width:0.24px;"/>
        </g>
        <g>
            <rect x="541.767" y="1500.64" width="75.118" height="75.118" style="fill:none;stroke:black;stroke-width:0.24px;"/>
        </g>
        <g>
            <rect x="541.767" y="1595.16" width="75.118" height="75.118" style="fill:none;stroke:black;stroke-width:0.24px;"/>
        </g>
        <g>
            <rect x="541.767" y="1689.68" width="75.118" height="75.118" style="fill:none;stroke:black;stroke-width:0.24px;"/>
        </g>
        <g>
            <rect x="541.767" y="1784.19" width="75.118" height="75.118" style="fill:none;stroke:black;stroke-width:0.24px;"/>
        </g>
        <g>
            <rect x="541.767" y="1878.71" width="75.118" height="75.118" style="fill:none;stroke:black;stroke-width:0.24px;"/>
        </g>
        <g>
            <rect x="541.767" y="1973.23" width="75.118" height="75.118" style="fill:none;stroke:black;stroke-width:0.24px;"/>
        </g>
        <g>
            <rect x="636.161" y="177.404" width="75.118" height="75.118" style="fill:none;stroke:black;stroke-width:0.24px;"/>
        </g>
        <g>
            <rect x="636.161" y="271.921" width="75.118" height="75.118" style="fill:none;stroke:black;stroke-width:0.24px;"/>
        </g>
        <g>
            <rect x="636.161" y="366.438" width="75.118" height="75.118" style="fill:none;stroke:black;stroke-width:0.24px;"/>
        </g>
        <g>
            <rect x="636.161" y="460.955" width="75.118" height="75.118" style="fill:none;stroke:black;stroke-width:0.24px;"/>
        </g>
        <g>
            <rect x="636.161" y="555.472" width="75.118" height="75.118" style="fill:none;stroke:black;stroke-width:0.24px;"/>
        </g>
        <g>
            <rect x="636.161" y="649.989" width="75.118" height="75.118" style="fill:none;stroke:black;stroke-width:0.24px;"/>
        </g>
        <g>
            <rect x="636.161" y="744.506" width="75.118" height="75.118" style="fill:none;stroke:black;stroke-width:0.24px;"/>
        </g>
        <g>
            <rect x="636.161" y="839.023" width="75.118" height="75.118" style="fill:none;stroke:black;stroke-width:0.24px;"/>
        </g>
        <g>
            <rect x="636.161" y="933.54" width="75.118" height="75.118" style="fill:none;stroke:black;stroke-width:0.24px;"/>
        </g>
        <g>
            <rect x="636.161" y="1028.06" width="75.118" height="75.118" style="fill:none;stroke:black;stroke-width:0.24px;"/>
        </g>
        <g>
            <rect x="636.161" y="1122.58" width="75.118" height="75.118" style="fill:none;stroke:black;stroke-width:0.24px;"/>
        </g>
        <g>
            <rect x="636.161" y="1217.09" width="75.118" height="75.118" style="fill:none;stroke:black;stroke-width:0.24px;"/>
        </g>
        <g>
            <rect x="636.161" y="1311.61" width="75.118" height="75.118" style="fill:none;stroke:black;stroke-width:0.24px;"/>
        </g>
        <g>
            <rect x="636.161" y="1406.13" width="75.118" height="75.118" style="fill:none;stroke:black;stroke-width:0.24px;"/>
        </g>
        <g>
            <rect x="636.161" y="1500.64" width="75.118" height="75.118" style="fill:none;stroke:black;stroke-width:0.24px;"/>
        </g>
        <g>
            <rect x="636.161" y="1595.16" width="75.118" height="75.118" style="fill:none;stroke:black;stroke-width:0.24px;"/>
        </g>
        <g>
            <rect x="636.161" y="1689.68" width="75.118" height="75.118" style="fill:none;stroke:black;stroke-width:0.24px;"/>
        </g>
        <g>
            <rect x="636.161" y="1784.19" width="75.118" height="75.118" style="fill:none;stroke:black;stroke-width:0.24px;"/>
        </g>
        <g>
            <rect x="636.161" y="1878.71" width="75.118" height="75.118" style="fill:none;stroke:black;stroke-width:0.24px;"/>
        </g>
        <g>
            <rect x="636.161" y="1973.23" width="75.118" height="75.118" style="fill:none;stroke:black;stroke-width:0.24px;"/>
        </g>
        <g>
            <rect x="730.554" y="177.404" width="75.118" height="75.118" style="fill:none;stroke:black;stroke-width:0.24px;"/>
        </g>
        <g>
            <rect x="730.554" y="271.921" width="75.118" height="75.118" style="fill:none;stroke:black;stroke-width:0.24px;"/>
        </g>
        <g>
            <rect x="730.554" y="366.438" width="75.118" height="75.118" style="fill:none;stroke:black;stroke-width:0.24px;"/>
        </g>
        <g>
            <rect x="730.554" y="460.955" width="75.118" height="75.118" style="fill:none;stroke:black;stroke-width:0.24px;"/>
        </g>
        <g>
            <rect x="730.554" y="555.472" width="75.118" height="75.118" style="fill:none;stroke:black;stroke-width:0.24px;"/>
        </g>
        <g>
            <rect x="730.554" y="649.989" width="75.118" height="75.118" style="fill:none;stroke:black;stroke-width:0.24px;"/>
        </g>
        <g>
            <rect x="730.554" y="744.506" width="75.118" height="75.118" style="fill:none;stroke:black;stroke-width:0.24px;"/>
        </g>
        <g>
            <rect x="730.554" y="839.023" width="75.118" height="75.118" style="fill:none;stroke:black;stroke-width:0.24px;"/>
        </g>
        <g>
            <rect x="730.554" y="933.54" width="75.118" height="75.118" style="fill:none;stroke:black;stroke-width:0.24px;"/>
        </g>
        <g>
            <rect x="730.554" y="1028.06" width="75.118" height="75.118" style="fill:none;stroke:black;stroke-width:0.24px;"/>
        </g>
        <g>
            <rect x="730.554" y="1122.58" width="75.118" height="75.118" style="fill:none;stroke:black;stroke-width:0.24px;"/>
        </g>
        <g>
            <rect x="730.554" y="1217.09" width="75.118" height="75.118" style="fill:none;stroke:black;stroke-width:0.24px;"/>
        </g>
        <g>
            <rect x="730.554" y="1311.61" width="75.118" height="75.118" style="fill:none;stroke:black;stroke-width:0.24px;"/>
        </g>
        <g>
            <rect x="730.554" y="1406.13" width="75.118" height="75.118" style="fill:none;stroke:black;stroke-width:0.24px;"/>
        </g>
        <g>
            <rect x="730.554" y="1500.64" width="75.118" height="75.118" style="fill:none;stroke:black;stroke-width:0.24px;"/>
        </g>
        <g>
            <rect x="730.554" y="1595.16" width="75.118" height="75.118" style="fill:none;stroke:black;stroke-width:0.24px;"/>
        </g>
        <g>
            <rect x="730.554" y="1689.68" width="75.118" height="75.118" style="fill:none;stroke:black;stroke-width:0.24px;"/>
        </g>
        <g>
            <rect x="730.554" y="1784.19" width="75.118" height="75.118" style="fill:none;stroke:black;stroke-width:0.24px;"/>
        </g>
        <g>
            <rect x="730.554" y="1878.71" width="75.118" height="75.118" style="fill:none;stroke:black;stroke-width:0.24px;"/>
        </g>
        <g>
            <rect x="730.554" y="1973.23" width="75.118" height="75.118" style="fill:none;stroke:black;stroke-width:0.24px;"/>
        </g>
        <g>
            <rect x="824.948" y="177.404" width="75.118" height="75.118" style="fill:none;stroke:black;stroke-width:0.24px;"/>
        </g>
        <g>
            <rect x="824.948" y="271.921" width="75.118" height="75.118" style="fill:none;stroke:black;stroke-width:0.24px;"/>
        </g>
        <g>
            <rect x="824.948" y="366.438" width="75.118" height="75.118" style="fill:none;stroke:black;stroke-width:0.24px;"/>
        </g>
        <g>
            <rect x="824.948" y="460.955" width="75.118" height="75.118" style="fill:none;stroke:black;stroke-width:0.24px;"/>
        </g>
        <g>
            <rect x="824.948" y="555.472" width="75.118" height="75.118" style="fill:none;stroke:black;stroke-width:0.24px;"/>
        </g>
        <g>
            <rect x="824.948" y="649.989" width="75.118" height="75.118" style="fill:none;stroke:black;stroke-width:0.24px;"/>
        </g>
        <g>
            <rect x="824.948" y="744.506" width="75.118" height="75.118" style="fill:none;stroke:black;stroke-width:0.24px;"/>
        </g>
        <g>
            <rect x="824.948" y="839.023" width="75.118" height="75.118" style="fill:none;stroke:black;stroke-width:0.24px;"/>
        </g>
        <g>
            <rect x="824.948" y="933.54" width="75.118" height="75.118" style="fill:none;stroke:black;stroke-width:0.24px;"/>
        </g>
        <g>
            <rect x="824.948" y="1028.06" width="75.118" height="75.118" style="fill:none;stroke:black;stroke-width:0.24px;"/>
        </g>
        <g>
            <rect x="824.948" y="1122.58" width="75.118" height="75.118" style="fill:none;stroke:black;stroke-width:0.24px;"/>
        </g>
        <g>
            <rect x="824.948" y="1217.09" width="75.118" height="75.118" style="fill:none;stroke:black;stroke-width:0.24px;"/>
        </g>
        <g>
            <rect x="824.948" y="1311.61" width="75.118" height="75.118" style="fill:none;stroke:black;stroke-width:0.24px;"/>
        </g>
        <g>
            <rect x="824.948" y="1406.13" width="75.118" height="75.118" style="fill:none;stroke:black;stroke-width:0.24px;"/>
        </g>
        <g>
            <rect x="824.948" y="1500.64" width="75.118" height="75.118" style="fill:none;stroke:black;stroke-width:0.24px;"/>
        </g>
        <g>
            <rect x="824.948" y="1595.16" width="75.118" height="75.118" style="fill:none;stroke:black;stroke-width:0.24px;"/>
        </g>
        <g>
            <rect x="824.948" y="1689.68" width="75.118" height="75.118" style="fill:none;stroke:black;stroke-width:0.24px;"/>
        </g>
        <g>
            <rect x="824.948" y="1784.19" width="75.118" height="75.118" style="fill:none;stroke:black;stroke-width:0.24px;"/>
        </g>
        <g>
            <rect x="824.948" y="1878.71" width="75.118" height="75.118" style="fill:none;stroke:black;stroke-width:0.24px;"/>
        </g>
        <g>
            <rect x="824.948" y="1973.23" width="75.118" height="75.118" style="fill:none;stroke:black;stroke-width:0.24px;"/>
        </g>
        <g>
            <rect x="919.342" y="177.404" width="75.118" height="75.118" style="fill:none;stroke:black;stroke-width:0.24px;"/>
        </g>
        <g>
            <rect x="919.342" y="271.921" width="75.118" height="75.118" style="fill:none;stroke:black;stroke-width:0.24px;"/>
        </g>
        <g>
            <rect x="919.342" y="366.438" width="75.118" height="75.118" style="fill:none;stroke:black;stroke-width:0.24px;"/>
        </g>
        <g>
            <rect x="919.342" y="460.955" width="75.118" height="75.118" style="fill:none;stroke:black;stroke-width:0.24px;"/>
        </g>
        <g>
            <rect x="919.342" y="555.472" width="75.118" height="75.118" style="fill:none;stroke:black;stroke-width:0.24px;"/>
        </g>
        <g>
            <rect x="919.342" y="649.989" width="75.118" height="75.118" style="fill:none;stroke:black;stroke-width:0.24px;"/>
        </g>
        <g>
            <rect x="919.342" y="744.506" width="75.118" height="75.118" style="fill:none;stroke:black;stroke-width:0.24px;"/>
        </g>
        <g>
            <rect x="919.342" y="839.023" width="75.118" height="75.118" style="fill:none;stroke:black;stroke-width:0.24px;"/>
        </g>
        <g>
            <rect x="919.342" y="933.54" width="75.118" height="75.118" style="fill:none;stroke:black;stroke-width:0.24px;"/>
        </g>
        <g>
            <rect x="919.342" y="1028.06" width="75.118" height="75.118" style="fill:none;stroke:black;stroke-width:0.24px;"/>
        </g>
        <g>
            <rect x="919.342" y="1122.58" width="75.118" height="75.118" style="fill:none;stroke:black;stroke-width:0.24px;"/>
        </g>
        <g>
            <rect x="919.342" y="1217.09" width="75.118" height="75.118" style="fill:none;stroke:black;stroke-width:0.24px;"/>
        </g>
        <g>
            <rect x="919.342" y="1311.61" width="75.118" height="75.118" style="fill:none;stroke:black;stroke-width:0.24px;"/>
        </g>
        <g>
            <rect x="919.342" y="1406.13" width="75.118" height="75.118" style="fill:none;stroke:black;stroke-width:0.24px;"/>
        </g>
        <g>
            <rect x="919.342" y="1500.64" width="75.118" height="75.118" style="fill:none;stroke:black;stroke-width:0.24px;"/>
        </g>
        <g>
            <rect x="919.342" y="1595.16" width="75.118" height="75.118" style="fill:none;stroke:black;stroke-width:0.24px;"/>
        </g>
        <g>
            <rect x="919.342" y="1689.68" width="75.118" height="75.118" style="fill:none;stroke:black;stroke-width:0.24px;"/>
        </g>
        <g>
            <rect x="919.342" y="1784.19" width="75.118" height="75.118" style="fill:none;stroke:black;stroke-width:0.24px;"/>
        </g>
        <g>
            <rect x="919.342" y="1878.71" width="75.118" height="75.118" style="fill:none;stroke:black;stroke-width:0.24px;"/>
        </g>
        <g>
            <rect x="919.342" y="1973.23" width="75.118" height="75.118" style="fill:none;stroke:black;stroke-width:0.24px;"/>
        </g>
        <rect x="44.413" y="2062.24" width="40.431" height="98.837" style="fill:none;stroke:black;stroke-width:0.3px;"/>
        <path d="M997.54,2080.99L997.54,2100.83L1063.51,2100.83L1063.51,2209.88L997.54,2209.88L997.54,2229.41L740.516,2229.41L740.516,2185.32L716.785,2185.32L716.785,2135.78L740.516,2135.78L740.516,2080.99L997.54,2080.99Z" style="fill:none;stroke:black;stroke-width:0.3px;"/>
        <rect x="241.168" y="2171.73" width="85.921" height="40.915" style="fill:none;stroke:black;stroke-width:0.3px;"/>
        <rect x="738.918" y="13.619" width="84.443" height="40.915" style="fill:none;stroke:black;stroke-width:0.3px;"/>
        <rect x="125.749" y="2067.46" width="25.854" height="13.64" style="fill:none;stroke:black;stroke-width:0.3px;"/>
        <rect x="330.233" y="2067.46" width="25.854" height="13.64" style="fill:none;stroke:black;stroke-width:0.3px;"/>
        <rect x="519.202" y="144.838" width="25.854" height="13.64" style="fill:none;stroke:black;stroke-width:0.3px;"/>
        <rect x="519.202" y="2067.46" width="25.854" height="13.64" style="fill:none;stroke:black;stroke-width:0.3px;"/>
        <rect x="708.172" y="144.838" width="25.854" height="13.64" style="fill:none;stroke:black;stroke-width:0.3px;"/>
        <rect x="708.172" y="2067.46" width="25.854" height="13.64" style="fill:none;stroke:black;stroke-width:0.3px;"/>
        <path d="M13.632,71.859C5.387,64.34 0.21,53.513 0.21,41.486C0.21,18.801 18.628,0.384 41.313,0.384C63.998,0.384 82.415,18.801 82.415,41.486C82.415,53.272 77.444,63.905 69.486,71.403L96.686,71.403L96.686,28.593L146.634,28.593L146.634,7.266L327.088,7.266L327.088,64.317L378.954,64.317L378.954,144.797L356.087,144.797L356.087,158.478L330.233,158.478L330.233,144.797L327.088,144.797L327.088,144.838L187.365,144.838L187.365,158.478L125.749,158.478L125.749,144.838L146.634,144.838L146.634,92.984L96.686,92.984L96.686,92.964L13.632,92.964L13.632,71.859Z" style="fill:none;stroke:black;stroke-width:0.3px;"/>
        <rect x="1042.37" y="7.266" width="28.346" height="28.346" style="fill:none;stroke:black;stroke-width:0.3px;"/>
    </g>
</svg>
