<?xml version="1.0" encoding="UTF-8" standalone="no"?>
<!DOCTYPE svg PUBLIC "-//W3C//DTD SVG 1.1//EN" "http://www.w3.org/Graphics/SVG/1.1/DTD/svg11.dtd">
<svg width="100%" height="100%" viewBox="0 0 1027 2223" version="1.1" xmlns="http://www.w3.org/2000/svg" xmlns:xlink="http://www.w3.org/1999/xlink" xml:space="preserve" style="fill-rule:evenodd;clip-rule:evenodd;stroke-linecap:round;stroke-linejoin:round;stroke-miterlimit:1.5;">
    <g id="Diffusor-Frame-5mm">
        <g>
            <rect x="22.804" y="167.609" width="80.787" height="80.787" style="fill:none;stroke:black;stroke-width:0.24px;"/>
        </g>
        <g>
            <rect x="22.804" y="262.126" width="80.787" height="80.787" style="fill:none;stroke:black;stroke-width:0.24px;"/>
        </g>
        <g>
            <rect x="22.804" y="356.643" width="80.787" height="80.787" style="fill:none;stroke:black;stroke-width:0.24px;"/>
        </g>
        <g>
            <rect x="22.804" y="451.16" width="80.787" height="80.787" style="fill:none;stroke:black;stroke-width:0.24px;"/>
        </g>
        <g>
            <rect x="22.804" y="545.677" width="80.787" height="80.787" style="fill:none;stroke:black;stroke-width:0.24px;"/>
        </g>
        <g>
            <rect x="22.804" y="640.195" width="80.787" height="80.787" style="fill:none;stroke:black;stroke-width:0.24px;"/>
        </g>
        <g>
            <rect x="22.804" y="734.712" width="80.787" height="80.787" style="fill:none;stroke:black;stroke-width:0.24px;"/>
        </g>
        <g>
            <rect x="22.804" y="829.229" width="80.787" height="80.787" style="fill:none;stroke:black;stroke-width:0.24px;"/>
        </g>
        <g>
            <rect x="22.804" y="923.746" width="80.787" height="80.787" style="fill:none;stroke:black;stroke-width:0.24px;"/>
        </g>
        <g>
            <rect x="22.804" y="1018.26" width="80.787" height="80.787" style="fill:none;stroke:black;stroke-width:0.24px;"/>
        </g>
        <g>
            <rect x="22.804" y="1112.78" width="80.787" height="80.787" style="fill:none;stroke:black;stroke-width:0.24px;"/>
        </g>
        <g>
            <rect x="22.804" y="1207.3" width="80.787" height="80.787" style="fill:none;stroke:black;stroke-width:0.24px;"/>
        </g>
        <g>
            <rect x="22.804" y="1301.81" width="80.787" height="80.787" style="fill:none;stroke:black;stroke-width:0.24px;"/>
        </g>
        <g>
            <rect x="22.804" y="1396.33" width="80.787" height="80.787" style="fill:none;stroke:black;stroke-width:0.24px;"/>
        </g>
        <g>
            <rect x="22.804" y="1490.85" width="80.787" height="80.787" style="fill:none;stroke:black;stroke-width:0.24px;"/>
        </g>
        <g>
            <rect x="22.804" y="1585.37" width="80.787" height="80.787" style="fill:none;stroke:black;stroke-width:0.24px;"/>
        </g>
        <g>
            <rect x="22.804" y="1679.88" width="80.787" height="80.787" style="fill:none;stroke:black;stroke-width:0.24px;"/>
        </g>
        <g>
            <rect x="22.804" y="1774.4" width="80.787" height="80.787" style="fill:none;stroke:black;stroke-width:0.24px;"/>
        </g>
        <g>
            <rect x="22.804" y="1868.92" width="80.787" height="80.787" style="fill:none;stroke:black;stroke-width:0.24px;"/>
        </g>
        <g>
            <rect x="22.804" y="1963.43" width="80.787" height="80.787" style="fill:none;stroke:black;stroke-width:0.24px;"/>
        </g>
        <g>
            <rect x="117.197" y="167.609" width="80.787" height="80.787" style="fill:none;stroke:black;stroke-width:0.24px;"/>
        </g>
        <g>
            <rect x="117.197" y="262.126" width="80.787" height="80.787" style="fill:none;stroke:black;stroke-width:0.24px;"/>
        </g>
        <g>
            <rect x="117.197" y="356.643" width="80.787" height="80.787" style="fill:none;stroke:black;stroke-width:0.24px;"/>
        </g>
        <g>
            <rect x="117.197" y="451.16" width="80.787" height="80.787" style="fill:none;stroke:black;stroke-width:0.24px;"/>
        </g>
        <g>
            <rect x="117.197" y="545.677" width="80.787" height="80.787" style="fill:none;stroke:black;stroke-width:0.24px;"/>
        </g>
        <g>
            <rect x="117.197" y="640.195" width="80.787" height="80.787" style="fill:none;stroke:black;stroke-width:0.24px;"/>
        </g>
        <g>
            <rect x="117.197" y="734.712" width="80.787" height="80.787" style="fill:none;stroke:black;stroke-width:0.24px;"/>
        </g>
        <g>
            <rect x="117.197" y="829.229" width="80.787" height="80.787" style="fill:none;stroke:black;stroke-width:0.24px;"/>
        </g>
        <g>
            <rect x="117.197" y="923.746" width="80.787" height="80.787" style="fill:none;stroke:black;stroke-width:0.24px;"/>
        </g>
        <g>
            <rect x="117.197" y="1018.26" width="80.787" height="80.787" style="fill:none;stroke:black;stroke-width:0.24px;"/>
        </g>
        <g>
            <rect x="117.197" y="1112.78" width="80.787" height="80.787" style="fill:none;stroke:black;stroke-width:0.24px;"/>
        </g>
        <g>
            <rect x="117.197" y="1207.3" width="80.787" height="80.787" style="fill:none;stroke:black;stroke-width:0.24px;"/>
        </g>
        <g>
            <rect x="117.197" y="1301.81" width="80.787" height="80.787" style="fill:none;stroke:black;stroke-width:0.24px;"/>
        </g>
        <g>
            <rect x="117.197" y="1396.33" width="80.787" height="80.787" style="fill:none;stroke:black;stroke-width:0.24px;"/>
        </g>
        <g>
            <rect x="117.197" y="1490.85" width="80.787" height="80.787" style="fill:none;stroke:black;stroke-width:0.24px;"/>
        </g>
        <g>
            <rect x="117.197" y="1585.37" width="80.787" height="80.787" style="fill:none;stroke:black;stroke-width:0.24px;"/>
        </g>
        <g>
            <rect x="117.197" y="1679.88" width="80.787" height="80.787" style="fill:none;stroke:black;stroke-width:0.24px;"/>
        </g>
        <g>
            <rect x="117.197" y="1774.4" width="80.787" height="80.787" style="fill:none;stroke:black;stroke-width:0.24px;"/>
        </g>
        <g>
            <rect x="117.197" y="1868.92" width="80.787" height="80.787" style="fill:none;stroke:black;stroke-width:0.24px;"/>
        </g>
        <g>
            <rect x="117.197" y="1963.43" width="80.787" height="80.787" style="fill:none;stroke:black;stroke-width:0.24px;"/>
        </g>
        <g>
            <rect x="211.591" y="167.609" width="80.787" height="80.787" style="fill:none;stroke:black;stroke-width:0.24px;"/>
        </g>
        <g>
            <rect x="211.591" y="262.126" width="80.787" height="80.787" style="fill:none;stroke:black;stroke-width:0.24px;"/>
        </g>
        <g>
            <rect x="211.591" y="356.643" width="80.787" height="80.787" style="fill:none;stroke:black;stroke-width:0.24px;"/>
        </g>
        <g>
            <rect x="211.591" y="451.16" width="80.787" height="80.787" style="fill:none;stroke:black;stroke-width:0.24px;"/>
        </g>
        <g>
            <rect x="211.591" y="545.677" width="80.787" height="80.787" style="fill:none;stroke:black;stroke-width:0.24px;"/>
        </g>
        <g>
            <rect x="211.591" y="640.195" width="80.787" height="80.787" style="fill:none;stroke:black;stroke-width:0.24px;"/>
        </g>
        <g>
            <rect x="211.591" y="734.712" width="80.787" height="80.787" style="fill:none;stroke:black;stroke-width:0.24px;"/>
        </g>
        <g>
            <rect x="211.591" y="829.229" width="80.787" height="80.787" style="fill:none;stroke:black;stroke-width:0.24px;"/>
        </g>
        <g>
            <rect x="211.591" y="923.746" width="80.787" height="80.787" style="fill:none;stroke:black;stroke-width:0.24px;"/>
        </g>
        <g>
            <rect x="211.591" y="1018.26" width="80.787" height="80.787" style="fill:none;stroke:black;stroke-width:0.24px;"/>
        </g>
        <g>
            <rect x="211.591" y="1112.78" width="80.787" height="80.787" style="fill:none;stroke:black;stroke-width:0.24px;"/>
        </g>
        <g>
            <rect x="211.591" y="1207.3" width="80.787" height="80.787" style="fill:none;stroke:black;stroke-width:0.24px;"/>
        </g>
        <g>
            <rect x="211.591" y="1301.81" width="80.787" height="80.787" style="fill:none;stroke:black;stroke-width:0.24px;"/>
        </g>
        <g>
            <rect x="211.591" y="1396.33" width="80.787" height="80.787" style="fill:none;stroke:black;stroke-width:0.24px;"/>
        </g>
        <g>
            <rect x="211.591" y="1490.85" width="80.787" height="80.787" style="fill:none;stroke:black;stroke-width:0.24px;"/>
        </g>
        <g>
            <rect x="211.591" y="1585.37" width="80.787" height="80.787" style="fill:none;stroke:black;stroke-width:0.24px;"/>
        </g>
        <g>
            <rect x="211.591" y="1679.88" width="80.787" height="80.787" style="fill:none;stroke:black;stroke-width:0.24px;"/>
        </g>
        <g>
            <rect x="211.591" y="1774.4" width="80.787" height="80.787" style="fill:none;stroke:black;stroke-width:0.24px;"/>
        </g>
        <g>
            <rect x="211.591" y="1868.92" width="80.787" height="80.787" style="fill:none;stroke:black;stroke-width:0.24px;"/>
        </g>
        <g>
            <rect x="211.591" y="1963.43" width="80.787" height="80.787" style="fill:none;stroke:black;stroke-width:0.24px;"/>
        </g>
        <g>
            <rect x="305.985" y="167.609" width="80.787" height="80.787" style="fill:none;stroke:black;stroke-width:0.24px;"/>
        </g>
        <g>
            <rect x="305.985" y="262.126" width="80.787" height="80.787" style="fill:none;stroke:black;stroke-width:0.24px;"/>
        </g>
        <g>
            <rect x="305.985" y="356.643" width="80.787" height="80.787" style="fill:none;stroke:black;stroke-width:0.24px;"/>
        </g>
        <g>
            <rect x="305.985" y="451.16" width="80.787" height="80.787" style="fill:none;stroke:black;stroke-width:0.24px;"/>
        </g>
        <g>
            <rect x="305.985" y="545.677" width="80.787" height="80.787" style="fill:none;stroke:black;stroke-width:0.24px;"/>
        </g>
        <g>
            <rect x="305.985" y="640.195" width="80.787" height="80.787" style="fill:none;stroke:black;stroke-width:0.24px;"/>
        </g>
        <g>
            <rect x="305.985" y="734.712" width="80.787" height="80.787" style="fill:none;stroke:black;stroke-width:0.24px;"/>
        </g>
        <g>
            <rect x="305.985" y="829.229" width="80.787" height="80.787" style="fill:none;stroke:black;stroke-width:0.24px;"/>
        </g>
        <g>
            <rect x="305.985" y="923.746" width="80.787" height="80.787" style="fill:none;stroke:black;stroke-width:0.24px;"/>
        </g>
        <g>
            <rect x="305.985" y="1018.26" width="80.787" height="80.787" style="fill:none;stroke:black;stroke-width:0.24px;"/>
        </g>
        <g>
            <rect x="305.985" y="1112.78" width="80.787" height="80.787" style="fill:none;stroke:black;stroke-width:0.24px;"/>
        </g>
        <g>
            <rect x="305.985" y="1207.3" width="80.787" height="80.787" style="fill:none;stroke:black;stroke-width:0.24px;"/>
        </g>
        <g>
            <rect x="305.985" y="1301.81" width="80.787" height="80.787" style="fill:none;stroke:black;stroke-width:0.24px;"/>
        </g>
        <g>
            <rect x="305.985" y="1396.33" width="80.787" height="80.787" style="fill:none;stroke:black;stroke-width:0.24px;"/>
        </g>
        <g>
            <rect x="305.985" y="1490.85" width="80.787" height="80.787" style="fill:none;stroke:black;stroke-width:0.24px;"/>
        </g>
        <g>
            <rect x="305.985" y="1585.37" width="80.787" height="80.787" style="fill:none;stroke:black;stroke-width:0.24px;"/>
        </g>
        <g>
            <rect x="305.985" y="1679.88" width="80.787" height="80.787" style="fill:none;stroke:black;stroke-width:0.24px;"/>
        </g>
        <g>
            <rect x="305.985" y="1774.4" width="80.787" height="80.787" style="fill:none;stroke:black;stroke-width:0.24px;"/>
        </g>
        <g>
            <rect x="305.985" y="1868.92" width="80.787" height="80.787" style="fill:none;stroke:black;stroke-width:0.24px;"/>
        </g>
        <g>
            <rect x="305.985" y="1963.43" width="80.787" height="80.787" style="fill:none;stroke:black;stroke-width:0.24px;"/>
        </g>
        <g>
            <rect x="400.379" y="167.609" width="80.787" height="80.787" style="fill:none;stroke:black;stroke-width:0.24px;"/>
        </g>
        <g>
            <rect x="400.379" y="262.126" width="80.787" height="80.787" style="fill:none;stroke:black;stroke-width:0.24px;"/>
        </g>
        <g>
            <rect x="400.379" y="356.643" width="80.787" height="80.787" style="fill:none;stroke:black;stroke-width:0.24px;"/>
        </g>
        <g>
            <rect x="400.379" y="451.16" width="80.787" height="80.787" style="fill:none;stroke:black;stroke-width:0.24px;"/>
        </g>
        <g>
            <rect x="400.379" y="545.677" width="80.787" height="80.787" style="fill:none;stroke:black;stroke-width:0.24px;"/>
        </g>
        <g>
            <rect x="400.379" y="640.195" width="80.787" height="80.787" style="fill:none;stroke:black;stroke-width:0.24px;"/>
        </g>
        <g>
            <rect x="400.379" y="734.712" width="80.787" height="80.787" style="fill:none;stroke:black;stroke-width:0.24px;"/>
        </g>
        <g>
            <rect x="400.379" y="829.229" width="80.787" height="80.787" style="fill:none;stroke:black;stroke-width:0.24px;"/>
        </g>
        <g>
            <rect x="400.379" y="923.746" width="80.787" height="80.787" style="fill:none;stroke:black;stroke-width:0.24px;"/>
        </g>
        <g>
            <rect x="400.379" y="1018.26" width="80.787" height="80.787" style="fill:none;stroke:black;stroke-width:0.24px;"/>
        </g>
        <g>
            <rect x="400.379" y="1112.78" width="80.787" height="80.787" style="fill:none;stroke:black;stroke-width:0.24px;"/>
        </g>
        <g>
            <rect x="400.379" y="1207.3" width="80.787" height="80.787" style="fill:none;stroke:black;stroke-width:0.24px;"/>
        </g>
        <g>
            <rect x="400.379" y="1301.81" width="80.787" height="80.787" style="fill:none;stroke:black;stroke-width:0.24px;"/>
        </g>
        <g>
            <rect x="400.379" y="1396.33" width="80.787" height="80.787" style="fill:none;stroke:black;stroke-width:0.24px;"/>
        </g>
        <g>
            <rect x="400.379" y="1490.85" width="80.787" height="80.787" style="fill:none;stroke:black;stroke-width:0.24px;"/>
        </g>
        <g>
            <rect x="400.379" y="1585.37" width="80.787" height="80.787" style="fill:none;stroke:black;stroke-width:0.24px;"/>
        </g>
        <g>
            <rect x="400.379" y="1679.88" width="80.787" height="80.787" style="fill:none;stroke:black;stroke-width:0.24px;"/>
        </g>
        <g>
            <rect x="400.379" y="1774.4" width="80.787" height="80.787" style="fill:none;stroke:black;stroke-width:0.24px;"/>
        </g>
        <g>
            <rect x="400.379" y="1868.92" width="80.787" height="80.787" style="fill:none;stroke:black;stroke-width:0.24px;"/>
        </g>
        <g>
            <rect x="400.379" y="1963.43" width="80.787" height="80.787" style="fill:none;stroke:black;stroke-width:0.24px;"/>
        </g>
        <g>
            <rect x="494.772" y="167.609" width="80.787" height="80.787" style="fill:none;stroke:black;stroke-width:0.24px;"/>
        </g>
        <g>
            <rect x="494.772" y="262.126" width="80.787" height="80.787" style="fill:none;stroke:black;stroke-width:0.24px;"/>
        </g>
        <g>
            <rect x="494.772" y="356.643" width="80.787" height="80.787" style="fill:none;stroke:black;stroke-width:0.24px;"/>
        </g>
        <g>
            <rect x="494.772" y="451.16" width="80.787" height="80.787" style="fill:none;stroke:black;stroke-width:0.24px;"/>
        </g>
        <g>
            <rect x="494.772" y="545.677" width="80.787" height="80.787" style="fill:none;stroke:black;stroke-width:0.24px;"/>
        </g>
        <g>
            <rect x="494.772" y="640.195" width="80.787" height="80.787" style="fill:none;stroke:black;stroke-width:0.24px;"/>
        </g>
        <g>
            <rect x="494.772" y="734.712" width="80.787" height="80.787" style="fill:none;stroke:black;stroke-width:0.24px;"/>
        </g>
        <g>
            <rect x="494.772" y="829.229" width="80.787" height="80.787" style="fill:none;stroke:black;stroke-width:0.24px;"/>
        </g>
        <g>
            <rect x="494.772" y="923.746" width="80.787" height="80.787" style="fill:none;stroke:black;stroke-width:0.24px;"/>
        </g>
        <g>
            <rect x="494.772" y="1018.26" width="80.787" height="80.787" style="fill:none;stroke:black;stroke-width:0.24px;"/>
        </g>
        <g>
            <rect x="494.772" y="1112.78" width="80.787" height="80.787" style="fill:none;stroke:black;stroke-width:0.24px;"/>
        </g>
        <g>
            <rect x="494.772" y="1207.3" width="80.787" height="80.787" style="fill:none;stroke:black;stroke-width:0.24px;"/>
        </g>
        <g>
            <rect x="494.772" y="1301.81" width="80.787" height="80.787" style="fill:none;stroke:black;stroke-width:0.24px;"/>
        </g>
        <g>
            <rect x="494.772" y="1396.33" width="80.787" height="80.787" style="fill:none;stroke:black;stroke-width:0.24px;"/>
        </g>
        <g>
            <rect x="494.772" y="1490.85" width="80.787" height="80.787" style="fill:none;stroke:black;stroke-width:0.24px;"/>
        </g>
        <g>
            <rect x="494.772" y="1585.37" width="80.787" height="80.787" style="fill:none;stroke:black;stroke-width:0.24px;"/>
        </g>
        <g>
            <rect x="494.772" y="1679.88" width="80.787" height="80.787" style="fill:none;stroke:black;stroke-width:0.24px;"/>
        </g>
        <g>
            <rect x="494.772" y="1774.4" width="80.787" height="80.787" style="fill:none;stroke:black;stroke-width:0.24px;"/>
        </g>
        <g>
            <rect x="494.772" y="1868.92" width="80.787" height="80.787" style="fill:none;stroke:black;stroke-width:0.24px;"/>
        </g>
        <g>
            <rect x="494.772" y="1963.43" width="80.787" height="80.787" style="fill:none;stroke:black;stroke-width:0.24px;"/>
        </g>
        <g>
            <rect x="589.166" y="167.609" width="80.787" height="80.787" style="fill:none;stroke:black;stroke-width:0.24px;"/>
        </g>
        <g>
            <rect x="589.166" y="262.126" width="80.787" height="80.787" style="fill:none;stroke:black;stroke-width:0.24px;"/>
        </g>
        <g>
            <rect x="589.166" y="356.643" width="80.787" height="80.787" style="fill:none;stroke:black;stroke-width:0.24px;"/>
        </g>
        <g>
            <rect x="589.166" y="451.16" width="80.787" height="80.787" style="fill:none;stroke:black;stroke-width:0.24px;"/>
        </g>
        <g>
            <rect x="589.166" y="545.677" width="80.787" height="80.787" style="fill:none;stroke:black;stroke-width:0.24px;"/>
        </g>
        <g>
            <rect x="589.166" y="640.195" width="80.787" height="80.787" style="fill:none;stroke:black;stroke-width:0.24px;"/>
        </g>
        <g>
            <rect x="589.166" y="734.712" width="80.787" height="80.787" style="fill:none;stroke:black;stroke-width:0.24px;"/>
        </g>
        <g>
            <rect x="589.166" y="829.229" width="80.787" height="80.787" style="fill:none;stroke:black;stroke-width:0.24px;"/>
        </g>
        <g>
            <rect x="589.166" y="923.746" width="80.787" height="80.787" style="fill:none;stroke:black;stroke-width:0.24px;"/>
        </g>
        <g>
            <rect x="589.166" y="1018.26" width="80.787" height="80.787" style="fill:none;stroke:black;stroke-width:0.24px;"/>
        </g>
        <g>
            <rect x="589.166" y="1112.78" width="80.787" height="80.787" style="fill:none;stroke:black;stroke-width:0.24px;"/>
        </g>
        <g>
            <rect x="589.166" y="1207.3" width="80.787" height="80.787" style="fill:none;stroke:black;stroke-width:0.24px;"/>
        </g>
        <g>
            <rect x="589.166" y="1301.81" width="80.787" height="80.787" style="fill:none;stroke:black;stroke-width:0.24px;"/>
        </g>
        <g>
            <rect x="589.166" y="1396.33" width="80.787" height="80.787" style="fill:none;stroke:black;stroke-width:0.24px;"/>
        </g>
        <g>
            <rect x="589.166" y="1490.85" width="80.787" height="80.787" style="fill:none;stroke:black;stroke-width:0.24px;"/>
        </g>
        <g>
            <rect x="589.166" y="1585.37" width="80.787" height="80.787" style="fill:none;stroke:black;stroke-width:0.24px;"/>
        </g>
        <g>
            <rect x="589.166" y="1679.88" width="80.787" height="80.787" style="fill:none;stroke:black;stroke-width:0.24px;"/>
        </g>
        <g>
            <rect x="589.166" y="1774.4" width="80.787" height="80.787" style="fill:none;stroke:black;stroke-width:0.24px;"/>
        </g>
        <g>
            <rect x="589.166" y="1868.92" width="80.787" height="80.787" style="fill:none;stroke:black;stroke-width:0.24px;"/>
        </g>
        <g>
            <rect x="589.166" y="1963.43" width="80.787" height="80.787" style="fill:none;stroke:black;stroke-width:0.24px;"/>
        </g>
        <g>
            <rect x="683.56" y="167.609" width="80.787" height="80.787" style="fill:none;stroke:black;stroke-width:0.24px;"/>
        </g>
        <g>
            <rect x="683.56" y="262.126" width="80.787" height="80.787" style="fill:none;stroke:black;stroke-width:0.24px;"/>
        </g>
        <g>
            <rect x="683.56" y="356.643" width="80.787" height="80.787" style="fill:none;stroke:black;stroke-width:0.24px;"/>
        </g>
        <g>
            <rect x="683.56" y="451.16" width="80.787" height="80.787" style="fill:none;stroke:black;stroke-width:0.24px;"/>
        </g>
        <g>
            <rect x="683.56" y="545.677" width="80.787" height="80.787" style="fill:none;stroke:black;stroke-width:0.24px;"/>
        </g>
        <g>
            <rect x="683.56" y="640.195" width="80.787" height="80.787" style="fill:none;stroke:black;stroke-width:0.24px;"/>
        </g>
        <g>
            <rect x="683.56" y="734.712" width="80.787" height="80.787" style="fill:none;stroke:black;stroke-width:0.24px;"/>
        </g>
        <g>
            <rect x="683.56" y="829.229" width="80.787" height="80.787" style="fill:none;stroke:black;stroke-width:0.24px;"/>
        </g>
        <g>
            <rect x="683.56" y="923.746" width="80.787" height="80.787" style="fill:none;stroke:black;stroke-width:0.24px;"/>
        </g>
        <g>
            <rect x="683.56" y="1018.26" width="80.787" height="80.787" style="fill:none;stroke:black;stroke-width:0.24px;"/>
        </g>
        <g>
            <rect x="683.56" y="1112.78" width="80.787" height="80.787" style="fill:none;stroke:black;stroke-width:0.24px;"/>
        </g>
        <g>
            <rect x="683.56" y="1207.3" width="80.787" height="80.787" style="fill:none;stroke:black;stroke-width:0.24px;"/>
        </g>
        <g>
            <rect x="683.56" y="1301.81" width="80.787" height="80.787" style="fill:none;stroke:black;stroke-width:0.24px;"/>
        </g>
        <g>
            <rect x="683.56" y="1396.33" width="80.787" height="80.787" style="fill:none;stroke:black;stroke-width:0.24px;"/>
        </g>
        <g>
            <rect x="683.56" y="1490.85" width="80.787" height="80.787" style="fill:none;stroke:black;stroke-width:0.24px;"/>
        </g>
        <g>
            <rect x="683.56" y="1585.37" width="80.787" height="80.787" style="fill:none;stroke:black;stroke-width:0.24px;"/>
        </g>
        <g>
            <rect x="683.56" y="1679.88" width="80.787" height="80.787" style="fill:none;stroke:black;stroke-width:0.24px;"/>
        </g>
        <g>
            <rect x="683.56" y="1774.4" width="80.787" height="80.787" style="fill:none;stroke:black;stroke-width:0.24px;"/>
        </g>
        <g>
            <rect x="683.56" y="1868.92" width="80.787" height="80.787" style="fill:none;stroke:black;stroke-width:0.24px;"/>
        </g>
        <g>
            <rect x="683.56" y="1963.43" width="80.787" height="80.787" style="fill:none;stroke:black;stroke-width:0.24px;"/>
        </g>
        <g>
            <rect x="777.953" y="167.609" width="80.787" height="80.787" style="fill:none;stroke:black;stroke-width:0.24px;"/>
        </g>
        <g>
            <rect x="777.953" y="262.126" width="80.787" height="80.787" style="fill:none;stroke:black;stroke-width:0.24px;"/>
        </g>
        <g>
            <rect x="777.953" y="356.643" width="80.787" height="80.787" style="fill:none;stroke:black;stroke-width:0.24px;"/>
        </g>
        <g>
            <rect x="777.953" y="451.16" width="80.787" height="80.787" style="fill:none;stroke:black;stroke-width:0.24px;"/>
        </g>
        <g>
            <rect x="777.953" y="545.677" width="80.787" height="80.787" style="fill:none;stroke:black;stroke-width:0.24px;"/>
        </g>
        <g>
            <rect x="777.953" y="640.195" width="80.787" height="80.787" style="fill:none;stroke:black;stroke-width:0.24px;"/>
        </g>
        <g>
            <rect x="777.953" y="734.712" width="80.787" height="80.787" style="fill:none;stroke:black;stroke-width:0.24px;"/>
        </g>
        <g>
            <rect x="777.953" y="829.229" width="80.787" height="80.787" style="fill:none;stroke:black;stroke-width:0.24px;"/>
        </g>
        <g>
            <rect x="777.953" y="923.746" width="80.787" height="80.787" style="fill:none;stroke:black;stroke-width:0.24px;"/>
        </g>
        <g>
            <rect x="777.953" y="1018.26" width="80.787" height="80.787" style="fill:none;stroke:black;stroke-width:0.24px;"/>
        </g>
        <g>
            <rect x="777.953" y="1112.78" width="80.787" height="80.787" style="fill:none;stroke:black;stroke-width:0.24px;"/>
        </g>
        <g>
            <rect x="777.953" y="1207.3" width="80.787" height="80.787" style="fill:none;stroke:black;stroke-width:0.24px;"/>
        </g>
        <g>
            <rect x="777.953" y="1301.81" width="80.787" height="80.787" style="fill:none;stroke:black;stroke-width:0.24px;"/>
        </g>
        <g>
            <rect x="777.953" y="1396.33" width="80.787" height="80.787" style="fill:none;stroke:black;stroke-width:0.24px;"/>
        </g>
        <g>
            <rect x="777.953" y="1490.85" width="80.787" height="80.787" style="fill:none;stroke:black;stroke-width:0.24px;"/>
        </g>
        <g>
            <rect x="777.953" y="1585.37" width="80.787" height="80.787" style="fill:none;stroke:black;stroke-width:0.24px;"/>
        </g>
        <g>
            <rect x="777.953" y="1679.88" width="80.787" height="80.787" style="fill:none;stroke:black;stroke-width:0.24px;"/>
        </g>
        <g>
            <rect x="777.953" y="1774.4" width="80.787" height="80.787" style="fill:none;stroke:black;stroke-width:0.24px;"/>
        </g>
        <g>
            <rect x="777.953" y="1868.92" width="80.787" height="80.787" style="fill:none;stroke:black;stroke-width:0.24px;"/>
        </g>
        <g>
            <rect x="777.953" y="1963.43" width="80.787" height="80.787" style="fill:none;stroke:black;stroke-width:0.24px;"/>
        </g>
        <g>
            <rect x="872.347" y="167.609" width="80.787" height="80.787" style="fill:none;stroke:black;stroke-width:0.24px;"/>
        </g>
        <g>
            <rect x="872.347" y="262.126" width="80.787" height="80.787" style="fill:none;stroke:black;stroke-width:0.24px;"/>
        </g>
        <g>
            <rect x="872.347" y="356.643" width="80.787" height="80.787" style="fill:none;stroke:black;stroke-width:0.24px;"/>
        </g>
        <g>
            <rect x="872.347" y="451.16" width="80.787" height="80.787" style="fill:none;stroke:black;stroke-width:0.24px;"/>
        </g>
        <g>
            <rect x="872.347" y="545.677" width="80.787" height="80.787" style="fill:none;stroke:black;stroke-width:0.24px;"/>
        </g>
        <g>
            <rect x="872.347" y="640.195" width="80.787" height="80.787" style="fill:none;stroke:black;stroke-width:0.24px;"/>
        </g>
        <g>
            <rect x="872.347" y="734.712" width="80.787" height="80.787" style="fill:none;stroke:black;stroke-width:0.24px;"/>
        </g>
        <g>
            <rect x="872.347" y="829.229" width="80.787" height="80.787" style="fill:none;stroke:black;stroke-width:0.24px;"/>
        </g>
        <g>
            <rect x="872.347" y="923.746" width="80.787" height="80.787" style="fill:none;stroke:black;stroke-width:0.24px;"/>
        </g>
        <g>
            <rect x="872.347" y="1018.26" width="80.787" height="80.787" style="fill:none;stroke:black;stroke-width:0.24px;"/>
        </g>
        <g>
            <rect x="872.347" y="1112.78" width="80.787" height="80.787" style="fill:none;stroke:black;stroke-width:0.24px;"/>
        </g>
        <g>
            <rect x="872.347" y="1207.3" width="80.787" height="80.787" style="fill:none;stroke:black;stroke-width:0.24px;"/>
        </g>
        <g>
            <rect x="872.347" y="1301.81" width="80.787" height="80.787" style="fill:none;stroke:black;stroke-width:0.24px;"/>
        </g>
        <g>
            <rect x="872.347" y="1396.33" width="80.787" height="80.787" style="fill:none;stroke:black;stroke-width:0.24px;"/>
        </g>
        <g>
            <rect x="872.347" y="1490.85" width="80.787" height="80.787" style="fill:none;stroke:black;stroke-width:0.24px;"/>
        </g>
        <g>
            <rect x="872.347" y="1585.37" width="80.787" height="80.787" style="fill:none;stroke:black;stroke-width:0.24px;"/>
        </g>
        <g>
            <rect x="872.347" y="1679.88" width="80.787" height="80.787" style="fill:none;stroke:black;stroke-width:0.24px;"/>
        </g>
        <g>
            <rect x="872.347" y="1774.4" width="80.787" height="80.787" style="fill:none;stroke:black;stroke-width:0.24px;"/>
        </g>
        <g>
            <rect x="872.347" y="1868.92" width="80.787" height="80.787" style="fill:none;stroke:black;stroke-width:0.24px;"/>
        </g>
        <g>
            <rect x="872.347" y="1963.43" width="80.787" height="80.787" style="fill:none;stroke:black;stroke-width:0.24px;"/>
        </g>
        <rect x="0.253" y="2055.28" width="40.431" height="98.837" style="fill:none;stroke:black;stroke-width:0.3px;"/>
        <path d="M102.474,21.633L102.474,0.306L282.928,0.306L282.928,57.357L303.695,57.357L303.695,5.673L715.996,5.673L715.996,6.659L779.2,6.659L779.2,47.573L715.996,47.573L715.996,72.71L334.794,72.71L334.794,137.837L282.928,137.837L282.928,137.878L143.205,137.878L143.205,151.518L107.443,151.518L107.443,137.878L102.474,137.878L102.474,86.024L39.566,86.024L39.566,21.633L102.474,21.633Z" style="fill:none;stroke:black;stroke-width:0.3px;"/>
        <path d="M672.181,2207.13L259.881,2207.13L259.881,2205.69L197.008,2205.69L197.008,2164.77L259.881,2164.77L259.881,2140.09L671.665,2140.09L671.665,2128.82L696.356,2128.82L696.356,2074.03L953.38,2074.03L953.38,2093.87L1019.35,2093.87L1019.35,2202.92L953.38,2202.92L953.38,2222.45L696.356,2222.45L696.356,2178.36L672.181,2178.36L672.181,2207.13Z" style="fill:none;stroke:black;stroke-width:0.3px;"/>
        <rect x="998.205" y="0.306" width="28.346" height="28.346" style="fill:none;stroke:black;stroke-width:0.3px;"/>
    </g>
</svg>
